<svg id="visual" viewBox="0 0 960 540" width="960" height="540" xmlns="http://www.w3.org/2000/svg" xmlns:xlink="http://www.w3.org/1999/xlink" version="1.1"><rect x="0" y="0" width="960" height="540" fill="#86f1da"></rect><path d="M0 397L17.8 391.2C35.7 385.3 71.3 373.7 106.8 352C142.3 330.3 177.7 298.7 213.2 290.8C248.7 283 284.3 299 320 327.8C355.7 356.7 391.3 398.3 426.8 425.8C462.3 453.3 497.7 466.7 533.2 454.5C568.7 442.3 604.3 404.7 640 397C675.7 389.3 711.3 411.7 746.8 418.2C782.3 424.7 817.7 415.3 853.2 412C888.7 408.7 924.3 411.3 942.2 412.7L960 414L960 541L942.2 541C924.3 541 888.7 541 853.2 541C817.7 541 782.3 541 746.8 541C711.3 541 675.7 541 640 541C604.3 541 568.7 541 533.2 541C497.7 541 462.3 541 426.8 541C391.3 541 355.7 541 320 541C284.3 541 248.7 541 213.2 541C177.7 541 142.3 541 106.8 541C71.3 541 35.7 541 17.8 541L0 541Z" fill="#30675b" stroke-linecap="round" stroke-linejoin="miter"></path></svg>