<svg id="visual" viewBox="0 0 960 540" width="960" height="540" xmlns="http://www.w3.org/2000/svg" xmlns:xlink="http://www.w3.org/1999/xlink" version="1.1"><rect x="0" y="0" width="960" height="540" fill="#86c5d8"></rect><path d="M0 353L40 358C80 363 160 373 240 353.7C320 334.3 400 285.7 480 256.8C560 228 640 219 720 240C800 261 880 312 920 337.5L960 363L960 541L920 541C880 541 800 541 720 541C640 541 560 541 480 541C400 541 320 541 240 541C160 541 80 541 40 541L0 541Z" fill="#cae9f5" stroke-linecap="round" stroke-linejoin="miter"></path></svg>